<svg width="52" height="40" viewBox="0 0 52 40" fill="none" xmlns="http://www.w3.org/2000/svg">
<path d="M44.0202 3.31578C40.7059 1.78105 37.1518 0.650328 33.4358 0.00271665C33.3681 -0.00978206 33.3005 0.0214529 33.2656 0.0839242C32.8086 0.904368 32.3022 1.9747 31.9477 2.81598C27.9509 2.21211 23.9746 2.21211 20.0597 2.81598C19.7051 1.956 19.1804 0.904368 18.7212 0.0839242C18.6864 0.0235372 18.6188 -0.00769771 18.5511 0.00271665C14.8371 0.648259 11.283 1.77898 7.96669 3.31578C7.93798 3.32827 7.91337 3.34912 7.89704 3.37617C1.15568 13.5403 -0.691059 23.4545 0.21489 33.2458C0.218989 33.2937 0.245635 33.3396 0.282529 33.3687C4.73029 36.6651 9.0387 38.6663 13.2671 39.9927C13.3348 40.0136 13.4065 39.9886 13.4495 39.9323C14.4498 38.5538 15.3414 37.1003 16.1059 35.5718C16.151 35.4823 16.1079 35.3761 16.0157 35.3407C14.6015 34.7993 13.2548 34.1392 11.9594 33.3895C11.857 33.3292 11.8487 33.1812 11.943 33.1104C12.2156 32.9043 12.4883 32.6898 12.7486 32.4732C12.7957 32.4337 12.8613 32.4253 12.9167 32.4503C21.4268 36.3715 30.64 36.3715 39.0497 32.4503C39.1051 32.4233 39.1707 32.4316 39.2199 32.4712C39.4802 32.6877 39.7528 32.9043 40.0275 33.1104C40.1217 33.1812 40.1156 33.3292 40.0131 33.3895C38.7177 34.1537 37.3711 34.7993 35.9548 35.3386C35.8626 35.374 35.8216 35.4823 35.8667 35.5718C36.6475 37.0982 37.5392 38.5517 38.5209 39.9303C38.562 39.9886 38.6357 40.0136 38.7034 39.9927C42.9523 38.6663 47.2607 36.6651 51.7084 33.3687C51.7474 33.3396 51.772 33.2958 51.7761 33.2479C52.8603 21.9281 49.9601 12.0951 44.0878 3.37824C44.0734 3.34912 44.0489 3.32827 44.0202 3.31578ZM17.3767 27.2839C14.8146 27.2839 12.7035 24.9101 12.7035 21.9947C12.7035 19.0794 14.7736 16.7055 17.3767 16.7055C20.0002 16.7055 22.0909 19.1002 22.0499 21.9947C22.0499 24.9101 19.9797 27.2839 17.3767 27.2839ZM34.6553 27.2839C32.0932 27.2839 29.9821 24.9101 29.9821 21.9947C29.9821 19.0794 32.0522 16.7055 34.6553 16.7055C37.2789 16.7055 39.3695 19.1002 39.3286 21.9947C39.3286 24.9101 37.2789 27.2839 34.6553 27.2839Z" fill="white"/>
</svg>
