<svg width="52" height="44" viewBox="0 0 52 44" fill="none" xmlns="http://www.w3.org/2000/svg">
<path d="M16.3587 43.1251C35.9765 43.1251 46.7096 26.868 46.7096 12.7742C46.7096 12.3171 46.6995 11.8499 46.6791 11.3929C48.7671 9.88295 50.5689 8.01267 52 5.86993C50.0555 6.73509 47.9909 7.30012 45.8768 7.54572C48.1028 6.21142 49.7695 4.11531 50.568 1.64595C48.4739 2.887 46.1837 3.76245 43.7958 4.23478C42.1868 2.52517 40.0595 1.39321 37.7427 1.0139C35.4258 0.634591 33.0486 1.02906 30.9784 2.13633C28.9083 3.2436 27.2606 5.00198 26.29 7.13963C25.3194 9.27728 25.0801 11.6751 25.609 13.9624C21.3687 13.7497 17.2205 12.6481 13.4333 10.7293C9.64606 8.81052 6.30434 6.11723 3.62477 2.82408C2.26287 5.17215 1.84612 7.95069 2.45923 10.595C3.07234 13.2393 4.6693 15.5509 6.92555 17.0601C5.23169 17.0063 3.57495 16.5503 2.09219 15.7296V15.8617C2.09067 18.3258 2.94255 20.7144 4.503 22.6215C6.06346 24.5285 8.2362 25.8363 10.6519 26.3226C9.08279 26.7519 7.43596 26.8144 5.83883 26.5054C6.52049 28.6246 7.84674 30.478 9.6325 31.8072C11.4183 33.1363 13.5744 33.8747 15.8001 33.9195C12.0216 36.8875 7.35404 38.4974 2.54922 38.4898C1.69712 38.4885 0.845865 38.4362 0 38.3334C4.88119 41.4649 10.5593 43.1281 16.3587 43.1251Z" fill="white"/>
</svg>
