<svg width="52" height="30" viewBox="0 0 52 30" fill="none" xmlns="http://www.w3.org/2000/svg">
<path d="M29.5293 14.8933C29.5293 23.1184 22.9189 29.7861 14.7649 29.7861C6.61095 29.7861 0 23.1169 0 14.8933C0 6.66973 6.61045 0 14.7649 0C22.9194 0 29.5293 6.66822 29.5293 14.8933Z" fill="white"/>
<path d="M45.385 14.0209C45.385 21.7631 42.0798 28.0418 38.0026 28.0418C33.9253 28.0418 30.6201 21.7631 30.6201 14.0209C30.6201 6.27875 33.9248 0 38.0021 0C42.0793 0 45.3845 6.27674 45.3845 14.0209" fill="white"/>
<path d="M51.6679 12.5605C51.6679 19.4956 50.5057 25.121 49.0715 25.121C47.6374 25.121 46.4756 19.4971 46.4756 12.5605C46.4756 5.62394 47.6379 0 49.0715 0C50.5052 0 51.6679 5.62344 51.6679 12.5605Z" fill="white"/>
</svg>
